<svg width="185" height="112" viewBox="0 0 185 112" fill="none" xmlns="http://www.w3.org/2000/svg">
<path d="M90.2965 57.8706C90.5332 57.3438 92.2699 59.0863 92.6645 60.3021C93.0593 61.5179 91.0859 65.1651 91.0859 65.1651C91.0859 65.1651 88.7177 71.244 88.7177 72.4598C88.7177 72.4598 89.1124 72.865 89.507 72.0545C89.9017 71.244 100.558 55.439 103.321 53.818C103.321 53.818 103.716 53.4127 104.505 53.4127C105.295 53.4127 106.084 54.2232 106.084 54.2232C106.084 54.2232 104.768 55.115 103.953 56.2495C100.392 61.2054 92.1391 74.053 90.5332 75.7019C88.5598 77.7281 85.5602 76.1071 85.5602 75.7019C85.5602 75.2966 85.1655 74.0808 85.5602 72.0545C85.9549 70.0282 87.9283 62.7337 90.2965 57.8706Z" fill="white"/>
<path d="M56.6248 65.8827C56.6248 65.8827 57.0353 64.7127 57.856 64.3226C58.677 63.9326 59.9082 63.9326 60.3185 64.7127C60.729 65.4927 58.2665 71.7335 58.2665 71.7335C58.2665 71.7335 57.4457 74.0737 58.2665 74.8538C58.2665 74.8538 67.706 68.223 70.1685 65.8827L70.9894 64.3226C70.9894 64.3226 70.9894 63.9326 72.2205 63.9326C73.4518 63.9326 74.683 64.3226 74.683 64.7127V65.4927C74.683 65.4927 75.0935 65.4927 75.5039 65.1026C75.9143 64.7127 78.7872 60.8121 81.6601 61.2022C85.7232 61.9823 83.4659 65.8827 83.4659 65.8827C83.4659 65.8827 80.7982 72.9035 80.7982 73.2936C80.7982 73.6836 81.6601 75.2438 82.8914 74.0737C82.8914 74.0737 83.3017 73.6836 83.3017 74.0737C83.3017 74.4637 82.4809 75.6339 82.4809 75.6339C82.4809 75.6339 78.7872 77.5842 78.3768 73.6836C77.9664 69.7832 80.4289 64.3226 80.4289 64.3226C80.4289 64.3226 80.6341 63.3474 79.8133 63.7375C78.9924 64.1275 72.4258 70.3682 71.1946 75.0489C71.1946 75.0489 69.9633 78.1692 66.68 75.829C66.68 75.829 66.2696 74.6588 66.68 73.4887C67.0904 72.3185 69.717 68.223 69.717 68.223C69.717 68.223 67.9113 69.5881 67.5008 69.9782C67.0904 70.3683 60.1134 76.609 58.8821 76.609C57.6509 76.609 53.9571 76.219 54.3676 73.4887C54.7779 70.7583 56.6248 65.8827 56.6248 65.8827Z" fill="white"/>
<path d="M60.817 61.1748C60.817 61.1748 63.9373 57.4554 64.3895 57.0638C64.8417 56.6723 64.8417 55.8893 63.9373 55.4977C63.0329 55.1063 62.1285 53.9316 61.224 55.4977C60.3196 57.0638 58.1037 61.1748 60.817 61.1748Z" fill="white"/>
<path fill-rule="evenodd" clip-rule="evenodd" d="M104.885 69.8073C103.239 70.9889 101.388 69.6104 101.388 69.6104C101.388 69.6104 97.89 74.927 101.593 74.927C105.297 74.927 119.905 64.8846 119.905 64.8846L120.315 66.4598C110.029 75.9116 102.622 76.6993 102.622 76.6993C102.622 76.6993 97.2727 76.3055 98.5072 71.1858C99.7416 66.0661 105.091 61.734 106.737 61.3402C108.383 60.9463 109.576 61.3009 110.234 61.9309C111.263 62.9155 110.852 63.7031 110.852 63.7031C110.503 66.0383 107.645 67.9497 105.778 69.1978C105.441 69.4231 105.137 69.6267 104.885 69.8073ZM108.177 62.7185C107.354 62.7185 102.416 67.8382 102.416 67.8382C103.284 68.6692 105.374 66.5777 106.824 65.1267C107.435 64.5148 107.933 64.0168 108.177 63.9C109 63.5062 108.177 62.7185 108.177 62.7185Z" fill="white"/>
<path fill-rule="evenodd" clip-rule="evenodd" d="M120.912 70.2964C120.104 69.8903 121.317 68.2661 121.317 68.2661C122.732 66.8448 123.137 64.0024 123.137 64.0024C118.687 66.4387 118.283 70.9055 119.092 71.3116C119.901 71.7177 121.924 74.9661 121.924 74.9661C122.328 74.9661 133.252 68.0631 133.252 68.0631L132.442 70.9055C131.229 72.1236 123.137 77.4025 123.137 77.4025C123.947 80.6509 122.732 84.3055 119.496 89.1782C116.26 94.0511 112.619 91.6147 112.619 91.6147L111.81 90.8025H111.001C111.001 90.8025 109.382 90.3965 110.191 85.9298C111.001 81.4631 120.386 75.5345 120.386 75.5345C119.908 74.3901 119.187 73.8079 118.483 73.2385C117.637 72.5555 116.815 71.891 116.462 70.2964C115.839 67.4804 119.058 64.1824 120.753 62.4456C121.259 61.9283 121.628 61.5494 121.722 61.363C122.125 60.5508 125.363 62.5812 125.767 63.3933C126.171 64.2054 124.148 67.0479 124.148 67.0479C124.148 67.0479 121.722 70.7025 120.912 70.2964ZM113.428 89.1783C113.428 89.1783 111.405 85.9298 120.71 79.0268C120.71 79.0268 117.473 89.9905 113.428 89.1783Z" fill="white"/>
<path fill-rule="evenodd" clip-rule="evenodd" d="M138.399 51.9902C140.169 48.388 141.493 45.9293 141.493 45.9293C142.895 44.9112 145.301 46.9473 144.899 47.7618C144.498 48.5763 143.697 48.5763 143.697 48.5763C143.427 48.8518 142.911 49.7902 142.274 51.0783C146.406 50.1545 150.708 49.3582 154.519 48.9835C166.944 47.7618 173.358 50.2052 173.358 51.0196C173.358 51.8341 172.156 51.8341 172.156 51.8341C172.156 51.8341 173.759 50.6124 158.929 51.0196C152.997 51.1825 146.617 52.3875 140.994 53.7751C138.914 58.2864 136.483 64.0511 136.483 64.0511C130.871 74.6391 132.475 79.5258 132.475 79.5258C133.677 79.9331 143.296 67.7161 144.098 66.4945C144.899 65.2727 148.107 65.2727 148.107 65.2727C141.292 74.6391 135.881 80.5439 135.881 80.5439C135.881 80.5439 129.068 85.4307 129.468 76.4716C129.701 71.2734 133.712 61.8251 137.038 54.8087C133.842 55.6874 131.046 56.5559 128.931 57.2128C126.732 57.8956 125.269 58.3497 124.859 58.3497C123.256 58.3497 121.292 55.7843 121.653 55.9064C122.855 56.3136 124.458 55.9064 124.458 55.9064C124.458 55.9064 130.714 53.8841 138.399 51.9902Z" fill="white"/>
<path opacity="0.8" fill-rule="evenodd" clip-rule="evenodd" d="M34.4387 70.4471C48.0144 63.0251 78.0112 42.3143 89.3934 18.8467C92.239 9.48095 85.8365 2.94254 73.9208 9.48094C62.6571 15.607 38.1024 35.5992 29.9925 66.5594C29.6772 66.7474 29.1951 67.0442 28.582 67.4218C24.0102 70.2363 12.1526 77.5365 7.76172 77.6924C8.65095 79.6362 10.7851 80.1663 14.8756 78.9294C18.9661 77.6924 26.7914 74.3348 29.9925 72.7444V72.8028C29.9912 75.5868 29.9851 88.8859 53.6462 97.3076C77.4777 105.79 120.872 94.1267 142.036 62.3183C142.57 61.6114 142.677 60.6218 138.834 62.3183C134.033 64.4388 117.138 72.7444 103.265 80.3431C95.2624 84.8787 76.3395 93.95 64.6728 93.95C50.0892 93.95 38.8787 89.4734 34.9723 79.9896C34.4387 78.0457 34.4387 75.9252 34.4387 70.4471ZM36.0394 62.8484C38.1735 55.8977 45.6431 39.0628 58.4481 27.329C74.4543 12.6619 81.924 10.5412 86.9036 11.0714C86.8895 11.1065 86.8751 11.1422 86.8605 11.1786C85.0296 15.7316 78.9131 30.9419 36.0394 62.8484Z" fill="white"/>
</svg>
