<svg width="25" height="25" viewBox="0 0 25 25" fill="none" xmlns="http://www.w3.org/2000/svg">
<path fill-rule="evenodd" clip-rule="evenodd" d="M12.9358 2.24463C7.41258 2.24463 2.93579 6.72141 2.93579 12.2446C2.93579 17.7678 7.41258 22.2446 12.9358 22.2446C18.459 22.2446 22.9358 17.7678 22.9358 12.2446C22.9358 6.72141 18.459 2.24463 12.9358 2.24463ZM12.9358 3.74463C17.6306 3.74463 21.4358 7.54984 21.4358 12.2446C21.4358 16.9394 17.6306 20.7446 12.9358 20.7446C8.24101 20.7446 4.43579 16.9394 4.43579 12.2446C4.43579 7.54984 8.24101 3.74463 12.9358 3.74463Z" fill="#8D8D8D"/>
<path d="M12.6387 13.4744C12.6387 13.1197 12.7175 12.8274 12.8751 12.5975C13.0394 12.361 13.2758 12.1048 13.5846 11.8289C13.821 11.6187 13.9951 11.4381 14.1068 11.287C14.225 11.1294 14.2841 10.952 14.2841 10.755C14.2841 10.4791 14.1725 10.2557 13.9491 10.085C13.7258 9.91417 13.4269 9.82877 13.0525 9.82877C12.3431 9.82877 11.8077 10.0817 11.4465 10.5875L10.4907 9.96672C10.7732 9.57916 11.1377 9.28357 11.5844 9.07994C12.0311 8.86975 12.5566 8.76465 13.1609 8.76465C13.8966 8.76465 14.4812 8.92558 14.9147 9.24745C15.3548 9.56274 15.5749 9.99956 15.5749 10.5579C15.5749 10.8272 15.5289 11.0637 15.4369 11.2673C15.3515 11.4709 15.2464 11.645 15.1216 11.7895C14.9968 11.9275 14.8326 12.0884 14.629 12.2723C14.3794 12.4957 14.1922 12.6927 14.0674 12.8635C13.9491 13.0343 13.89 13.2379 13.89 13.4744H12.6387ZM13.2693 15.8293C13.0394 15.8293 12.8489 15.757 12.6978 15.6125C12.5533 15.4614 12.481 15.2775 12.481 15.0607C12.481 14.844 12.5533 14.6633 12.6978 14.5188C12.8489 14.3743 13.0394 14.302 13.2693 14.302C13.4926 14.302 13.6765 14.3743 13.821 14.5188C13.9721 14.6633 14.0477 14.844 14.0477 15.0607C14.0477 15.2775 13.9721 15.4614 13.821 15.6125C13.6765 15.757 13.4926 15.8293 13.2693 15.8293Z" fill="#8D8D8D"/>
</svg>
