<svg width="26" height="26" viewBox="0 0 26 26" fill="none" xmlns="http://www.w3.org/2000/svg">
<path fill-rule="evenodd" clip-rule="evenodd" d="M10.5 16C6.45483 16 3 16.597 3 18.9892C3 21.3804 6.43273 22 10.5 22C14.5452 22 18 21.402 18 19.0108C18 16.6196 14.5673 16 10.5 16Z" stroke="#F47920" stroke-width="1.7" stroke-linecap="round" stroke-linejoin="round"/>
<path fill-rule="evenodd" clip-rule="evenodd" d="M10.5 13C13.2758 13 15.5 10.7747 15.5 8.00001C15.5 5.22417 13.2758 3 10.5 3C7.72527 3 5.5 5.22417 5.5 8.00001C5.5 10.7747 7.72527 13 10.5 13Z" stroke="#F47920" stroke-width="1.7" stroke-linecap="round" stroke-linejoin="round"/>
<path d="M21 9V13" stroke="#F47920" stroke-width="1.7" stroke-linecap="round" stroke-linejoin="round"/>
<path d="M23 11H19" stroke="#F47920" stroke-width="1.7" stroke-linecap="round" stroke-linejoin="round"/>
</svg>
