<svg width="20" height="21" viewBox="0 0 20 21" fill="none" xmlns="http://www.w3.org/2000/svg">
<g clip-path="url(#clip0)">
<path d="M9.99991 20.3956C7.32884 20.3956 4.81765 19.3554 2.92888 17.4667C1.04019 15.5779 0 13.0667 0 10.3957C0 7.72459 1.04019 5.2134 2.92888 3.32463C4.81765 1.43594 7.32884 0.395752 9.99991 0.395752C12.671 0.395752 15.1822 1.43594 17.0709 3.32463C18.9596 5.2134 19.9998 7.72459 19.9998 10.3957C19.9998 13.0667 18.9596 15.5779 17.0709 17.4667C15.1822 19.3554 12.671 20.3956 9.99991 20.3956ZM9.99991 1.95824C5.34749 1.95824 1.56249 5.74324 1.56249 10.3957C1.56249 15.0481 5.34749 18.8331 9.99991 18.8331C14.6523 18.8331 18.4373 15.0481 18.4373 10.3957C18.4373 5.74324 14.6523 1.95824 9.99991 1.95824ZM13.6615 12.1217C13.2975 11.8901 12.8146 11.9974 12.583 12.3614C12.5733 12.3765 11.6011 13.8746 9.96084 13.8746C8.32063 13.8746 7.34837 12.3765 7.33872 12.3614C7.10708 11.9974 6.62424 11.8901 6.26022 12.1217C5.8962 12.3534 5.78889 12.8363 6.02053 13.2002C6.07865 13.2916 7.47255 15.4371 9.96084 15.4371C12.4491 15.4371 13.843 13.2916 13.9012 13.2002C14.1328 12.8362 14.0255 12.3534 13.6615 12.1217ZM6.56244 6.841C7.10177 6.841 7.53899 7.27823 7.53899 7.81756C7.53899 8.35689 7.10177 8.79411 6.56244 8.79411C6.02311 8.79411 5.58589 8.35689 5.58589 7.81756C5.58589 7.27823 6.02311 6.841 6.56244 6.841ZM12.4218 7.81756C12.4218 8.35689 12.859 8.79411 13.3983 8.79411C13.9376 8.79411 14.3749 8.35689 14.3749 7.81756C14.3749 7.27823 13.9376 6.841 13.3983 6.841C12.859 6.841 12.4218 7.27823 12.4218 7.81756Z" fill="#8D8D8D"/>
</g>
<defs>
<clipPath id="clip0">
<rect width="19.9998" height="19.9998" fill="white" transform="translate(0 0.395752)"/>
</clipPath>
</defs>
</svg>
