<svg width="21" height="21" viewBox="0 0 21 21" fill="none" xmlns="http://www.w3.org/2000/svg">
<path d="M17.0692 8.04883C17.0692 8.04883 16.6167 13.6613 16.3542 16.0255C16.2292 17.1547 15.5317 17.8163 14.3892 17.8372C12.215 17.8763 10.0383 17.8788 7.86501 17.833C6.76585 17.8105 6.08001 17.1405 5.95751 16.0313C5.69335 13.6463 5.24335 8.04883 5.24335 8.04883" stroke="white" stroke-width="1.5" stroke-linecap="round" stroke-linejoin="round"/>
<path d="M18.2219 5.3584H4.09024" stroke="white" stroke-width="1.5" stroke-linecap="round" stroke-linejoin="round"/>
<path d="M15.4989 5.35843C14.8447 5.35843 14.2814 4.89593 14.1531 4.25509L13.9506 3.24176C13.8256 2.77426 13.4022 2.45093 12.9197 2.45093H9.39225C8.90975 2.45093 8.48641 2.77426 8.36141 3.24176L8.15891 4.25509C8.03058 4.89593 7.46725 5.35843 6.81308 5.35843" stroke="white" stroke-width="1.5" stroke-linecap="round" stroke-linejoin="round"/>
</svg>
