<svg width="58" height="58" viewBox="0 0 58 58" fill="none" xmlns="http://www.w3.org/2000/svg">
<g clip-path="url(#clip0)">
<path d="M46.3241 52.5H1.56515C0.535146 52.5 -0.213854 51.522 0.055146 50.527L10.2211 22.656C10.4051 21.974 11.0241 21.5 11.7311 21.5H56.4901C57.5201 21.5 58.0001 22.484 58.0001 23.473L47.8341 51.344C47.6501 52.026 47.0311 52.5 46.3241 52.5Z" fill="#24A1D9"/>
<path d="M50.268 12.5H25L20 5.5H1.732C0.776 5.5 0 6.275 0 7.232V49.96C0.069 49.962 0.138 49.966 0.205 49.97L10.22 22.656C10.404 21.973 11.023 21.5 11.73 21.5H52V14.232C52 13.275 51.224 12.5 50.268 12.5Z" fill="#168EC4"/>
</g>
<defs>
<clipPath id="clip0">
<rect width="58" height="58" fill="white"/>
</clipPath>
</defs>
</svg>
