<svg width="19" height="19" viewBox="0 0 19 19" fill="none" xmlns="http://www.w3.org/2000/svg">
<path d="M17.2124 2.87021H1.70146C1.37965 2.87021 1.11875 3.13111 1.11875 3.45292V6.36123C1.11875 6.68304 1.37965 6.94393 1.70146 6.94393H2.08819V15.0861C2.08819 15.408 2.34908 15.6689 2.67089 15.6689H16.243C16.5648 15.6689 16.8257 15.408 16.8257 15.0861V6.94393H17.2124C17.5342 6.94393 17.7951 6.68304 17.7951 6.36123V3.45292C17.7951 3.13111 17.5342 2.87021 17.2124 2.87021ZM15.6603 14.5034H3.2536V6.94393H15.6603V14.5034ZM16.6297 5.77852H2.28416V4.03563H16.6297V5.77852Z" fill="#FF3838" stroke="#FF3838" stroke-width="0.2"/>
<path d="M8.48754 10.8217H10.4264C11.2824 10.8217 11.9786 10.1255 11.9786 9.26953C11.9786 8.41358 11.2824 7.71738 10.4264 7.71738H8.48754C7.6316 7.71738 6.9354 8.41358 6.9354 9.26953C6.9354 10.1255 7.6316 10.8217 8.48754 10.8217ZM8.48754 8.8828H10.4264C10.6396 8.8828 10.8131 9.05637 10.8131 9.26953C10.8131 9.48268 10.6396 9.65625 10.4264 9.65625H8.48754C8.27439 9.65625 8.10081 9.48268 8.10081 9.26953C8.10081 9.05637 8.27439 8.8828 8.48754 8.8828Z" fill="#FF3838" stroke="#FF3838" stroke-width="0.2"/>
</svg>
