<svg width="21" height="21" viewBox="0 0 21 21" fill="none" xmlns="http://www.w3.org/2000/svg">
<g clip-path="url(#clip0)">
<path d="M18.9707 2.49082C16.7787 0.346074 13.2745 0.346541 11.083 2.49188L1.89198 11.683C0.23005 13.3841 0.261811 16.1103 1.96292 17.7723C3.63604 19.4069 6.30813 19.4069 7.98125 17.7723L16.3039 9.44961C17.3859 8.36765 17.3859 6.61341 16.3039 5.53145C15.2219 4.4495 13.4677 4.4495 12.3857 5.53145L4.42494 13.4922C4.14727 13.7797 4.15524 14.2379 4.44275 14.5155C4.72321 14.7864 5.16783 14.7864 5.44829 14.5155L13.4091 6.55476C13.937 6.04905 14.7749 6.06707 15.2806 6.59496C15.771 7.10692 15.771 7.91435 15.2806 8.4263L6.95794 16.7489C5.83362 17.8572 4.02366 17.8443 2.91533 16.7199C1.81819 15.607 1.81819 13.8192 2.91533 12.7063L12.1064 3.51519C13.7436 1.87744 16.3983 1.87697 18.0361 3.51409C19.6739 5.15121 19.6743 7.80604 18.0372 9.4438L8.8461 18.6349C8.54252 18.8949 8.50716 19.3518 8.76714 19.6553C9.02713 19.9589 9.48399 19.9943 9.78757 19.7343C9.8159 19.71 9.84227 19.6837 9.86653 19.6553L19.0576 10.4642C21.2354 8.23845 21.1965 4.6686 18.9707 2.49082Z" fill="#8D8D8D"/>
</g>
<defs>
<clipPath id="clip0">
<rect width="19.9998" height="19.9998" fill="white" transform="translate(0.666016 0.395508)"/>
</clipPath>
</defs>
</svg>
