<svg width="33" height="33" viewBox="0 0 33 33" fill="none" xmlns="http://www.w3.org/2000/svg">
<g filter="url(#filter0_d)">
<circle cx="16.5" cy="12.5" r="12.5" fill="white"/>
</g>
<path d="M14.0651 18.3331C13.5099 18.3335 12.9672 18.1655 12.5055 17.8502C12.0438 17.5349 11.684 17.0866 11.4715 16.5621C11.259 16.0375 11.2034 15.4602 11.3118 14.9034C11.4202 14.3465 11.6877 13.835 12.0804 13.4337L18.3177 7.05378C18.5038 6.86299 18.7248 6.71158 18.9681 6.60822C19.2114 6.50486 19.4723 6.45158 19.7358 6.45142C19.9992 6.45125 20.2601 6.50422 20.5036 6.60727C20.747 6.71033 20.9682 6.86146 21.1545 7.05203C21.3408 7.24259 21.4886 7.46885 21.5893 7.71787C21.6901 7.96688 21.7418 8.23377 21.7417 8.50327C21.7415 8.77277 21.6894 9.03959 21.5884 9.28847C21.4873 9.53736 21.3393 9.76343 21.1528 9.95376L15.4826 15.7537C15.2568 15.9834 14.9512 16.1121 14.6327 16.1117C14.3143 16.1112 14.009 15.9816 13.7838 15.7513C13.5587 15.521 13.432 15.2087 13.4315 14.883C13.4311 14.5573 13.557 14.2446 13.7815 14.0137L18.3177 9.37375C18.3931 9.29762 18.4948 9.25507 18.6007 9.2554C18.7066 9.25574 18.8081 9.29892 18.883 9.37553C18.9579 9.45214 19.0001 9.55595 19.0004 9.66429C19.0007 9.77263 18.9591 9.87669 18.8847 9.95376L14.3486 14.5936C14.311 14.6316 14.2811 14.6769 14.2606 14.7267C14.2402 14.7766 14.2296 14.8301 14.2294 14.8842C14.2292 14.9382 14.2395 14.9918 14.2597 15.0418C14.2798 15.0917 14.3094 15.1372 14.3468 15.1754C14.3842 15.2136 14.4286 15.2439 14.4775 15.2645C14.5263 15.2852 14.5787 15.2957 14.6315 15.2955C14.6844 15.2954 14.7367 15.2845 14.7854 15.2636C14.8342 15.2427 14.8784 15.2121 14.9156 15.1737L20.5858 9.37375C20.8114 9.14301 20.9381 8.83006 20.9381 8.50375C20.9381 8.17744 20.8113 7.8645 20.5858 7.63376C20.3602 7.40303 20.0542 7.27341 19.7352 7.27341C19.4162 7.27342 19.1103 7.40305 18.8847 7.63379L12.6475 14.0137C12.46 14.2038 12.3111 14.4299 12.2093 14.6791C12.1074 14.9282 12.0547 15.1955 12.0541 15.4655C12.0536 15.7356 12.1051 16.0031 12.2059 16.2527C12.3067 16.5023 12.4546 16.729 12.6413 16.92C12.828 17.1109 13.0497 17.2623 13.2937 17.3654C13.5377 17.4684 13.7992 17.5212 14.0632 17.5206C14.3272 17.52 14.5885 17.4661 14.8321 17.3619C15.0757 17.2577 15.2967 17.1054 15.4826 16.9136L20.5858 11.6937C20.6613 11.6182 20.7628 11.5762 20.8683 11.5768C20.9739 11.5774 21.075 11.6206 21.1496 11.697C21.2243 11.7733 21.2664 11.8767 21.267 11.9847C21.2676 12.0926 21.2266 12.1965 21.1528 12.2737L16.0496 17.4937C15.7892 17.7604 15.4798 17.9719 15.1392 18.1159C14.7986 18.26 14.4336 18.3338 14.0651 18.3331Z" fill="#24A1D9"/>
<defs>
<filter id="filter0_d" x="0" y="0" width="33" height="33" filterUnits="userSpaceOnUse" color-interpolation-filters="sRGB">
<feFlood flood-opacity="0" result="BackgroundImageFix"/>
<feColorMatrix in="SourceAlpha" type="matrix" values="0 0 0 0 0 0 0 0 0 0 0 0 0 0 0 0 0 0 127 0"/>
<feOffset dy="4"/>
<feGaussianBlur stdDeviation="2"/>
<feColorMatrix type="matrix" values="0 0 0 0 0.694427 0 0 0 0 0.742118 0 0 0 0 0.8375 0 0 0 0.1 0"/>
<feBlend mode="normal" in2="BackgroundImageFix" result="effect1_dropShadow"/>
<feBlend mode="normal" in="SourceGraphic" in2="effect1_dropShadow" result="shape"/>
</filter>
</defs>
</svg>
