<svg width="25" height="25" viewBox="0 0 25 25" fill="none" xmlns="http://www.w3.org/2000/svg">
<path d="M19.5357 10.0698C19.5357 10.0698 18.9927 16.8048 18.6777 19.6418C18.5277 20.9968 17.6907 21.7908 16.3197 21.8158C13.7107 21.8628 11.0987 21.8658 8.49073 21.8108C7.17173 21.7838 6.34873 20.9798 6.20173 19.6488C5.88473 16.7868 5.34473 10.0698 5.34473 10.0698" stroke="#FF3838" stroke-width="1.5" stroke-linecap="round" stroke-linejoin="round"/>
<path d="M20.9189 6.84131H3.96094" stroke="#FF3838" stroke-width="1.5" stroke-linecap="round" stroke-linejoin="round"/>
<path d="M17.6515 6.84105C16.8665 6.84105 16.1905 6.28605 16.0365 5.51705L15.7935 4.30105C15.6435 3.74005 15.1355 3.35205 14.5565 3.35205H10.3235C9.74452 3.35205 9.23652 3.74005 9.08652 4.30105L8.84352 5.51705C8.68952 6.28605 8.01352 6.84105 7.22852 6.84105" stroke="#FF3838" stroke-width="1.5" stroke-linecap="round" stroke-linejoin="round"/>
</svg>
