<svg width="31" height="31" viewBox="0 0 31 31" fill="none" xmlns="http://www.w3.org/2000/svg">
<path d="M8.56458 10.8667H3.4771C3.25131 10.8667 3.06836 11.0497 3.06836 11.2754V27.6193C3.06836 27.8451 3.25131 28.0281 3.4771 28.0281H8.56458C8.79037 28.0281 8.97332 27.8451 8.97332 27.6193V11.2754C8.97332 11.0497 8.79037 10.8667 8.56458 10.8667Z" fill="white"/>
<path d="M6.02263 3.02832C4.1715 3.02832 2.66553 4.53266 2.66553 6.38174C2.66553 8.23163 4.1715 9.73655 6.02263 9.73655C7.87227 9.73655 9.37703 8.23155 9.37703 6.38174C9.37711 4.53266 7.87227 3.02832 6.02263 3.02832Z" fill="white"/>
<path d="M21.3051 10.4604C19.2618 10.4604 17.7513 11.3388 16.8351 12.3369V11.2754C16.8351 11.0497 16.6522 10.8667 16.4264 10.8667H11.5543C11.3285 10.8667 11.1455 11.0497 11.1455 11.2754V27.6193C11.1455 27.8451 11.3285 28.028 11.5543 28.028H16.6306C16.8564 28.028 17.0394 27.8451 17.0394 27.6193V19.5329C17.0394 16.8079 17.7795 15.7463 19.679 15.7463C21.7478 15.7463 21.9122 17.4482 21.9122 19.6731V27.6194C21.9122 27.8452 22.0951 28.0281 22.3209 28.0281H27.3991C27.6249 28.0281 27.8079 27.8452 27.8079 27.6194V18.6545C27.8079 14.6026 27.0353 10.4604 21.3051 10.4604Z" fill="white"/>
</svg>
