<svg width="21" height="21" viewBox="0 0 21 21" fill="none" xmlns="http://www.w3.org/2000/svg">
<path fill-rule="evenodd" clip-rule="evenodd" d="M13.9206 3.25305H6.69642C4.17892 3.25305 2.60059 5.03555 2.60059 7.55805V14.3647C2.60059 16.8872 4.17142 18.6697 6.69642 18.6697H13.9197C16.4456 18.6697 18.0172 16.8872 18.0172 14.3647V7.55805C18.0172 5.03555 16.4456 3.25305 13.9206 3.25305Z" stroke="white" stroke-width="1.5" stroke-linecap="round" stroke-linejoin="round"/>
<path fill-rule="evenodd" clip-rule="evenodd" d="M9.21863 10.9614C9.21863 11.813 8.52781 12.5047 7.67531 12.5047C6.82365 12.5047 6.13281 11.813 6.13281 10.9614C6.13281 10.1097 6.82365 9.41803 7.67531 9.41803C8.52781 9.41803 9.21863 10.1097 9.21863 10.9614Z" stroke="white" stroke-width="1.5" stroke-linecap="round" stroke-linejoin="round"/>
<path d="M9.21875 10.9614H14.4838V12.5047" stroke="white" stroke-width="1.5" stroke-linecap="round" stroke-linejoin="round"/>
<path d="M12.127 12.5043V10.9609" stroke="white" stroke-width="1.5" stroke-linecap="round" stroke-linejoin="round"/>
</svg>
