<svg width="18" height="19" viewBox="0 0 18 19" fill="none" xmlns="http://www.w3.org/2000/svg">
<g clip-path="url(#clip0)">
<path d="M17.2605 3.98274H3.18664L2.97744 1.65216C2.94323 1.27103 2.62381 0.979004 2.24117 0.979004H0.73923C0.330964 0.979004 0 1.30997 0 1.71823C0 2.1265 0.330964 2.45746 0.73923 2.45746H1.56534C2.0168 7.48711 0.850009 -5.51267 2.41556 11.9298C2.47589 12.6125 2.84477 13.3533 3.48022 13.8567C2.33452 15.3198 3.38134 17.4767 5.24501 17.4767C6.79183 17.4767 7.88283 15.934 7.35238 14.4729H11.3983C10.8685 15.9321 11.9571 17.4767 13.5057 17.4767C14.7414 17.4767 15.7468 16.4714 15.7468 15.2356C15.7468 13.9998 14.7414 12.9944 13.5057 12.9944H5.25001C4.68848 12.9944 4.19914 12.6556 3.98793 12.162L15.8018 11.4677C16.1243 11.4488 16.3972 11.2225 16.4756 10.9091L17.9776 4.90125C18.0941 4.4354 17.7414 3.98274 17.2605 3.98274ZM5.24501 15.9983C4.8245 15.9983 4.48234 15.6561 4.48234 15.2356C4.48234 14.815 4.8245 14.4729 5.24501 14.4729C5.66556 14.4729 6.00772 14.815 6.00772 15.2356C6.00772 15.6561 5.66556 15.9983 5.24501 15.9983ZM13.5056 15.9983C13.0851 15.9983 12.7429 15.6561 12.7429 15.2356C12.7429 14.815 13.0851 14.4729 13.5056 14.4729C13.9262 14.4729 14.2683 14.815 14.2683 15.2356C14.2683 15.6561 13.9262 15.9983 13.5056 15.9983ZM15.173 10.0237L3.78894 10.6927L3.31935 5.46117H16.3137L15.173 10.0237Z" fill="#168EC4"/>
</g>
<defs>
<clipPath id="clip0">
<rect width="18" height="18" fill="white" transform="translate(0 0.227539)"/>
</clipPath>
</defs>
</svg>
