<svg width="31" height="31" viewBox="0 0 31 31" fill="none" xmlns="http://www.w3.org/2000/svg">
<path d="M28.9139 8.39822C28.5898 7.19332 27.6398 6.24352 26.4351 5.91908C24.2342 5.31689 15.4306 5.31689 15.4306 5.31689C15.4306 5.31689 6.62725 5.31689 4.42638 5.89625C3.24484 6.22035 2.27169 7.1935 1.94759 8.39822C1.36841 10.5989 1.36841 15.1629 1.36841 15.1629C1.36841 15.1629 1.36841 19.7498 1.94759 21.9275C2.27203 23.1323 3.22166 24.0821 4.42656 24.4065C6.65043 25.0089 15.4309 25.0089 15.4309 25.0089C15.4309 25.0089 24.2342 25.0089 26.4351 24.4295C27.64 24.1052 28.5898 23.1554 28.9142 21.9507C29.4932 19.7498 29.4932 15.186 29.4932 15.186C29.4932 15.186 29.5164 10.5989 28.9139 8.39822ZM12.6277 19.3792V10.9465L19.9483 15.1629L12.6277 19.3792Z" fill="white"/>
</svg>
